<svg xmlns="http://www.w3.org/2000/svg" width="29.053" height="29.053" viewBox="0 0 29.053 29.053">
  <g id="Group_13312" data-name="Group 13312" transform="translate(-1480 -67)">
    <circle id="Ellipse_4183" data-name="Ellipse 4183" cx="12.5" cy="12.5" r="12.5" transform="translate(1482 68.908)" fill="#21455e"/>
    <g id="noun_profile_1995071" transform="translate(1480 67)">
      <path id="Path_9196" data-name="Path 9196" d="M17.026,2.5A14.526,14.526,0,1,0,31.553,17.026,14.54,14.54,0,0,0,17.026,2.5Zm0,8.318a4.557,4.557,0,1,1-4.557,4.557A4.568,4.568,0,0,1,17.026,10.818ZM9.075,25.834v-.673a3.517,3.517,0,0,1,3.517-3.517h8.869a3.517,3.517,0,0,1,3.517,3.517v.673a11.866,11.866,0,0,1-15.9,0Z" transform="translate(-2.5 -2.5)" fill="#e8ecee"/>
    </g>
  </g>
</svg>
